<svg width="36" height="36" viewBox="0 0 36 36" fill="none" xmlns="http://www.w3.org/2000/svg">
<path d="M18.0015 0.5C16.439 0.5 15.189 1.75 15.189 3.3125C15.189 4.875 16.439 6.125 18.0015 6.125C19.564 6.125 20.814 4.875 20.814 3.3125C20.814 1.75 19.564 0.5 18.0015 0.5Z" fill="#7F8CED"/>
<path d="M26.7515 2.87505C25.439 2.12505 23.689 2.56255 22.939 3.87505C22.189 5.18755 22.6265 6.93755 23.939 7.68755C25.2515 8.43755 27.0015 8.00005 27.7515 6.68755C28.5015 5.37505 28.1265 3.62505 26.7515 2.87505Z" fill="#04E1CB"/>
<path d="M33.126 9.25C32.376 7.9375 30.626 7.4375 29.3135 8.25C28.001 9 27.501 10.75 28.3135 12.0625C29.0635 13.375 30.8135 13.875 32.126 13.0625C33.4385 12.25 33.9385 10.5625 33.126 9.25Z" fill="#FF538A"/>
<path d="M35.5005 18C35.5005 16.4375 34.2505 15.1875 32.688 15.1875C31.1255 15.1875 29.8755 16.4375 29.8755 18C29.8755 19.5625 31.1255 20.8125 32.688 20.8125C34.2505 20.8125 35.5005 19.5625 35.5005 18Z" fill="#FE9339"/>
<path d="M33.126 26.75C33.876 25.4375 33.4385 23.6876 32.126 22.9376C30.8135 22.1876 29.0635 22.6251 28.3135 23.9376C27.5635 25.25 28.001 27 29.3135 27.75C30.626 28.5625 32.376 28.125 33.126 26.75Z" fill="#91DB8B"/>
<path d="M26.7515 33.125C28.064 32.375 28.564 30.625 27.7515 29.3125C27.0015 28 25.2515 27.5 23.939 28.3125C22.6265 29.0625 22.1265 30.8125 22.939 32.125C23.689 33.4375 25.3765 33.9375 26.7515 33.125Z" fill="#0D9DDA"/>
<path d="M18.0015 35.5C19.564 35.5 20.814 34.25 20.814 32.6875C20.814 31.125 19.564 29.875 18.0015 29.875C16.439 29.875 15.189 31.125 15.189 32.6875C15.189 34.25 16.439 35.5 18.0015 35.5Z" fill="#200647"/>
<path d="M9.25031 33.1251C10.5628 33.8751 12.3128 33.4375 13.0628 32.1251C13.8128 30.8126 13.3753 29.0626 12.0628 28.3126C10.7503 27.5626 9.00031 28.0001 8.25031 29.3126C7.43781 30.6251 7.87531 32.3751 9.25031 33.1251Z" fill="#4A154B"/>
<path d="M2.87646 26.75C3.62646 28.0625 5.37646 28.5625 6.68896 27.75C8.00146 26.9375 8.50146 25.25 7.68896 23.9375C6.93896 22.625 5.18896 22.125 3.87646 22.9375C2.56396 23.75 2.06396 25.4375 2.87646 26.75Z" fill="#FF784F"/>
<path d="M0.500977 18C0.500977 19.5625 1.75098 20.8125 3.31348 20.8125C4.87598 20.8125 6.12598 19.5625 6.12598 18C6.12598 16.4375 4.87598 15.1875 3.31348 15.1875C1.75098 15.1875 0.500977 16.4375 0.500977 18Z" fill="#730394"/>
<path d="M2.87652 9.25C2.12652 10.5625 2.56402 12.3125 3.87652 13.0625C5.18902 13.8125 6.93902 13.375 7.68901 12.0625C8.43901 10.75 8.00151 9 6.68902 8.25C5.37652 7.5 3.62652 7.875 2.87652 9.25Z" fill="#7526E3"/>
<path d="M9.25097 2.875C7.93847 3.625 7.43847 5.375 8.25097 6.6875C9.00097 8 10.751 8.5 12.0635 7.6875C13.376 6.9375 13.876 5.18749 13.0635 3.87499C12.3135 2.5625 10.626 2.0625 9.25097 2.875Z" fill="#032D60"/>
</svg>
