<svg width="15" height="16" viewBox="0 0 15 16" fill="none" xmlns="http://www.w3.org/2000/svg">
<path fill-rule="evenodd" clip-rule="evenodd" d="M9.42304 7.76919L14.423 2.73073C14.6538 2.49996 14.6538 2.15381 14.423 1.92304L13.6538 1.11535C13.423 0.884578 13.0769 0.884578 12.8461 1.11535L7.80765 6.15381C7.65381 6.30765 7.42304 6.30765 7.26919 6.15381L2.23073 1.07689C1.99996 0.846116 1.65381 0.846116 1.42304 1.07689L0.615347 1.88458C0.384578 2.11535 0.384578 2.4615 0.615347 2.69227L5.65381 7.73073C5.80765 7.88458 5.80765 8.11535 5.65381 8.26919L0.576886 13.3461C0.346116 13.5769 0.346116 13.923 0.576886 14.1538L1.38458 14.9615C1.61535 15.1923 1.9615 15.1923 2.19227 14.9615L7.23073 9.92304C7.38458 9.76919 7.61535 9.76919 7.76919 9.92304L12.8077 14.9615C13.0384 15.1923 13.3846 15.1923 13.6153 14.9615L14.423 14.1538C14.6538 13.923 14.6538 13.5769 14.423 13.3461L9.42304 8.30765C9.26919 8.15381 9.26919 7.92304 9.42304 7.76919Z" fill="#0176D3"/>
</svg>
