<svg width="40" height="34" viewBox="0 0 40 34" fill="none" xmlns="http://www.w3.org/2000/svg">
<path d="M33.6875 23.248L34.9375 23.0605C35.3125 22.9355 37 22.1855 36.8125 19.4355C35.75 19.6855 34.25 19.8105 33.125 19.123C32.5 18.748 31.75 18.0605 31.625 16.6855C31.5625 16.248 31.75 15.8105 32.0625 15.5605C32.1875 15.4355 32.3125 15.373 32.4375 15.3105C32.875 15.123 33.25 14.9355 33.625 14.6855C33.8125 14.5605 34.0625 14.4355 34.3125 14.3105C33.875 13.4355 33.125 12.748 31.8125 12.0605C31.4375 11.873 31.1875 11.498 31.1875 11.0605C31.1875 10.623 31.375 10.248 31.6875 9.99805L31.75 9.93555C30.6875 9.56055 29.625 9.06055 28.8125 8.62305C28.0625 8.18555 27 8.43555 25.8125 8.68555L25.5625 8.74805C25.1875 8.81055 24.8125 8.74805 24.5 8.49805C24.1875 8.24805 24.0625 7.87305 24.0625 7.49805C24.125 5.87305 24 4.93555 23.9375 4.62305C23.875 4.31055 23.75 4.06055 23.5625 3.87305C21.5625 4.43555 19.5 5.43555 18.9375 6.12305C18.625 6.49805 18.125 6.68555 17.6875 6.56055C17.25 6.43555 16.875 6.06055 16.75 5.62305C16.625 4.99805 15.75 3.99805 14.875 3.37305C14.625 3.99805 14.25 4.49805 13.875 4.99805C13.1875 5.93555 12.5625 6.81055 12.6875 8.24805C12.6875 8.68555 12.5 9.12305 12.1875 9.37305C11.8125 9.62305 11.375 9.68555 11 9.49805C10.1875 9.18555 8.5625 9.31055 7.3125 9.74805C7.5 9.93555 7.625 10.1855 7.8125 10.4355L7.875 10.498C8.0625 10.748 8.1875 11.123 8.125 11.498C8.0625 11.873 7.875 12.123 7.5625 12.3105L7.375 12.4355C6.3125 13.0605 5.375 13.6855 4.6875 14.373C4.75 14.373 4.875 14.373 4.9375 14.373H5C5.0625 14.373 5.125 14.373 5.1875 14.4355C5.1875 14.4355 5.25 14.4355 5.25 14.498C5.3125 14.498 5.3125 14.5605 5.375 14.5605L5.4375 14.623C5.5 14.623 5.5 14.6855 5.5625 14.6855L5.625 14.748C5.625 14.8105 5.6875 14.8105 5.6875 14.873L5.75 14.9355C5.75 14.998 5.8125 14.998 5.8125 15.0605C5.8125 15.123 5.8125 15.123 5.875 15.1855C5.875 15.248 5.875 15.248 5.9375 15.3105C5.9375 15.373 5.9375 15.373 5.9375 15.4355C5.9375 15.498 5.9375 15.498 5.9375 15.5605C5.9375 18.373 7.125 18.873 7.1875 18.873C7.6875 18.998 8 19.3105 8.125 19.8105C8.25 20.3105 7.9375 20.8105 7.5 21.0605C6.25 21.873 4.9375 22.1855 3.875 22.1855C4.75 23.873 5.5625 24.0605 6.9375 24.3105C7 24.3105 7 24.3105 7 24.3105C7.0625 24.3105 7.125 24.3105 7.125 24.373C7.1875 24.373 7.25 24.4355 7.3125 24.498C7.3125 24.498 7.3125 24.498 7.375 24.498C7.4375 24.5605 7.5 24.623 7.5625 24.623C7.625 24.623 7.625 24.6855 7.625 24.748L7.6875 24.8105C7.6875 24.8105 7.6875 24.873 7.75 24.873C7.75 24.9355 7.8125 24.9355 7.8125 24.998V25.0605C7.8125 25.123 7.875 25.1855 7.875 25.248C7.875 25.3105 7.875 25.4355 7.875 25.498C7.875 25.5605 7.875 25.623 7.875 25.748C7.875 25.8105 7.8125 25.873 7.8125 25.998L7.3125 27.3105C8.125 27.623 8.9375 27.5605 9.875 27.0605C9.5625 26.1855 9.3125 25.248 9.25 24.248C8.6875 19.4355 10.4375 15.498 14.1875 13.248H14.25C14.3125 13.248 14.3125 13.1855 14.375 13.1855C14.4375 13.1855 14.4375 13.1855 14.5 13.123C14.5625 13.123 14.5625 13.123 14.625 13.123C14.6875 13.123 14.6875 13.123 14.75 13.123C14.8125 13.123 14.8125 13.123 14.875 13.123C14.9375 13.123 14.9375 13.123 15 13.123C15.0625 13.123 15.0625 13.123 15.125 13.123C15.1875 13.123 15.1875 13.123 15.25 13.123C15.3125 13.123 15.3125 13.123 15.375 13.1855H15.4375C15.4375 13.1855 15.4375 13.1855 15.5 13.1855C15.5625 13.1855 15.5625 13.248 15.625 13.248C15.6875 13.248 15.6875 13.3105 15.75 13.3105C15.75 13.3105 15.8125 13.3105 15.8125 13.373C16.1875 13.748 17.1875 14.1855 18.125 14.498C18 13.8105 17.9375 13.123 18.0625 12.4355C18.0625 12.3105 18.125 12.1855 18.1875 12.0605C18.3125 11.873 18.4375 11.6855 18.5625 11.623C18.875 11.4355 19.1875 11.373 19.5625 11.4355C19.9375 11.498 20.375 11.623 20.8125 11.8105C22.875 12.498 25.375 13.8105 27 15.498C27.1875 15.1855 27.5 14.9355 27.875 14.8105H27.9375C28.4375 14.748 28.875 14.9355 29.1875 15.3105C30.6875 17.373 32.8125 22.248 31.1875 27.123C32 27.0605 32.8125 26.873 33.5 26.5605C32.9375 25.8105 32.6875 24.9355 32.75 24.1855C32.6875 23.8105 33.125 23.3105 33.6875 23.248Z" fill="#0D9DDA"/>
<path d="M26.9376 18.748C26.4376 18.8105 26.0001 18.5605 25.7501 18.1855C24.8751 16.8105 22.6876 15.373 20.6251 14.623C20.7501 14.998 20.9376 15.373 21.2501 15.6855C21.5626 16.0605 21.6251 16.5605 21.4376 16.998C21.2501 17.4355 20.8126 17.748 20.3126 17.748C19.0001 17.748 16.5001 16.9355 14.9376 16.0605C11.8751 18.3105 11.5626 21.6855 11.8126 24.248C12.2501 28.748 15.3751 31.248 20.6876 31.248C24.0001 31.248 26.6876 30.0605 28.1876 27.9355C28.1876 27.9355 28.1876 27.9355 28.1876 27.873C30.0626 24.373 29.0626 20.623 28.0001 18.4355C27.6251 18.5605 27.3126 18.6855 26.9376 18.748Z" fill="white"/>
<path d="M14.4998 21.623C14.0623 21.498 13.7498 20.9355 13.9373 20.498C14.3748 19.123 16.0623 18.3105 17.4998 18.8105C17.9373 18.9355 18.2498 19.498 18.0623 19.9355C17.9373 20.373 17.3748 20.6855 16.9373 20.498C16.3748 20.3105 15.7498 20.5605 15.6248 21.0605C15.4373 21.498 14.9373 21.748 14.4998 21.623Z" fill="white"/>
<path d="M16.8125 24.498C17.3993 24.498 17.875 23.8265 17.875 22.998C17.875 22.1696 17.3993 21.498 16.8125 21.498C16.2257 21.498 15.75 22.1696 15.75 22.998C15.75 23.8265 16.2257 24.498 16.8125 24.498Z" fill="white"/>
<path d="M25.5625 29.0605C25 29.498 24 29.3105 22.875 28.998C22.125 28.8105 21.25 28.623 20.375 28.623C19.5 28.623 18.625 28.8105 17.875 29.0605C17.25 29.248 16.6875 29.373 16.25 29.373C15.9375 29.373 15.6875 29.3105 15.5 29.123C15.1875 28.873 15.0625 28.498 15.0625 27.873C15.0625 27.4355 15.25 27.0605 15.625 26.748C16.6875 25.9355 17.8125 25.373 19 25.123C19.0625 25.123 19.1875 25.123 19.25 25.248C19.5 25.623 20 25.873 20.5625 25.873C21.125 25.873 21.625 25.623 21.875 25.248C21.9375 25.1855 22 25.123 22.125 25.1855C23.875 25.623 25.1875 26.623 25.625 26.998C25.875 27.248 26.0625 27.5605 26.0625 27.9355C26 28.4355 25.8125 28.8105 25.5625 29.0605Z" fill="white"/>
<path d="M23.1875 22.998C23.1875 22.1855 23.625 21.498 24.25 21.498C24.8125 21.498 25.3125 22.1855 25.3125 22.998C25.3125 23.8105 24.8125 24.498 24.25 24.498C23.6875 24.498 23.1875 23.8105 23.1875 22.998Z" fill="white"/>
<path d="M26.5002 21.2481C26.0627 21.4981 25.5002 21.3106 25.3127 20.8731C25.0627 20.4356 24.3752 20.3106 23.8752 20.5606C23.4377 20.8106 22.8752 20.6231 22.6877 20.1856C22.4377 19.7481 22.6252 19.1856 23.0627 18.9981C24.4377 18.2481 26.1877 18.7481 26.8752 20.0606C27.1252 20.4981 26.9377 21.0606 26.5002 21.2481Z" fill="white"/>
<path d="M39.0625 17.5605C39 17.1855 38.75 16.873 38.4375 16.748C38.125 16.5605 37.75 16.5605 37.375 16.6855C36.625 16.998 35.3125 17.3105 34.625 17.0605C34.75 16.998 34.8125 16.9355 34.9375 16.873C35.4375 16.623 35.8125 16.373 36.3125 16.248C36.9375 16.0605 37.375 15.373 37.1875 14.748C36.75 13.1855 35.9375 11.9355 34.5625 10.873C34.875 10.5605 35.125 10.248 35.25 9.93555C35.4375 9.56055 35.4375 9.18555 35.3125 8.81055C35.125 8.43555 34.8125 8.18555 34.4375 8.12305C33.125 7.81055 31.3125 7.06055 30.125 6.43555C29 5.81055 27.8125 5.81055 26.6875 5.99805C26.6875 5.12305 26.5625 4.43555 26.5 3.99805C26.1875 2.81055 25.4375 1.87305 24.5 1.43555C24.25 1.31055 23.9375 1.24805 23.625 1.37305C22.375 1.68555 20.125 2.43555 18.5 3.43555C17.5 1.99805 15.8125 0.748047 14.5 0.373047C14.125 0.248047 13.6875 0.310547 13.375 0.560547C13.0625 0.810547 12.875 1.18555 12.875 1.56055C12.875 2.24805 12.5625 2.74805 11.9375 3.56055C11.3125 4.37305 10.625 5.37305 10.375 6.81055C8.31255 6.68555 5.87505 7.37305 4.56255 8.56055C4.31255 8.81055 4.12505 9.18555 4.18755 9.56055C4.25005 9.93555 4.37505 10.248 4.68755 10.498C4.75005 10.5605 4.87505 10.6855 5.12505 10.9355C3.50005 11.998 1.87505 13.248 1.31255 15.373C1.18755 15.748 1.25005 16.1855 1.50005 16.498C1.75005 16.8105 2.06255 16.998 2.50005 16.998H3.50005C3.62505 18.248 4.00005 19.1855 4.43755 19.873C3.25005 20.123 2.31255 19.873 2.25005 19.873C1.81255 19.748 1.31255 19.873 1.00005 20.1855C0.687549 20.498 0.562549 20.998 0.687549 21.4355C1.87505 24.998 3.18755 26.123 4.93755 26.6855L4.62505 27.623V27.6855C4.62505 27.748 4.62505 27.748 4.56255 27.8105C4.56255 27.873 4.56255 27.873 4.56255 27.9355C4.56255 27.998 4.56255 27.998 4.56255 28.0605C4.56255 28.123 4.56255 28.123 4.56255 28.1855C4.56255 28.248 4.56255 28.248 4.56255 28.3105C4.56255 28.373 4.56255 28.373 4.56255 28.4355C4.56255 28.498 4.56255 28.498 4.62505 28.5605C4.62505 28.623 4.68755 28.623 4.68755 28.6855C4.68755 28.748 4.75005 28.748 4.75005 28.8105C4.75005 28.873 4.81255 28.873 4.81255 28.9355L4.87505 28.998C4.87505 29.0605 4.93755 29.0605 5.00005 29.0605L5.06255 29.123C5.06255 29.123 5.12505 29.123 5.12505 29.1855C6.12505 29.873 7.18755 30.248 8.31255 30.248C9.18755 30.248 10.125 29.998 11.0625 29.5605C13 32.248 16.25 33.748 20.625 33.748C24.5625 33.748 27.8125 32.3105 29.8125 29.8105C30.0625 29.8105 30.25 29.8105 30.5 29.8105C32.3125 29.8105 34.5625 29.3105 36 27.873C36.0625 27.8105 36.125 27.8105 36.125 27.748C36.125 27.748 36.125 27.748 36.125 27.6855C36.125 27.6855 36.125 27.623 36.1875 27.623C36.1875 27.5605 36.25 27.5605 36.25 27.498C36.25 27.4355 36.3125 27.4355 36.3125 27.373C36.3125 27.3105 36.375 27.3105 36.375 27.248C36.375 27.1855 36.375 27.1855 36.375 27.123C36.375 27.0605 36.375 27.0605 36.375 26.998C36.375 26.9355 36.375 26.9355 36.375 26.873C36.375 26.8105 36.375 26.8105 36.375 26.748C36.375 26.6855 36.375 26.6855 36.375 26.623C36.375 26.5605 36.375 26.5605 36.375 26.498C36.375 26.4355 36.375 26.4355 36.3125 26.373C36.3125 26.3105 36.3125 26.3105 36.25 26.248C36.25 26.1855 36.1875 26.1855 36.1875 26.123C36.1875 26.0605 36.125 26.0605 36.125 25.998C36.125 25.9355 36.0625 25.9355 36.0625 25.873L36 25.8105C36 25.8105 36 25.8105 35.9375 25.8105C35.9375 25.8105 35.9375 25.8105 35.875 25.748C35.6875 25.5605 35.5 25.4355 35.375 25.248C37.25 24.998 40.1875 22.748 39.0625 17.5605Z" fill="#032D60"/>
<path d="M31.0625 27.3105C32.6875 22.4355 30.625 17.5605 29.0625 15.498C28.75 15.123 28.3125 14.9355 27.8125 14.998H27.75C27.375 15.0605 27.0625 15.3105 26.875 15.6855C25.25 13.9355 22.6875 12.623 20.6875 11.998C20.25 11.873 19.8125 11.748 19.4375 11.623C19.125 11.5605 18.75 11.623 18.4375 11.8105C18.25 11.9355 18.125 12.123 18.0625 12.248C18 12.373 17.9375 12.498 17.9375 12.623C17.8125 13.3105 17.8125 13.998 18 14.6855C17 14.373 16.0625 13.9355 15.6875 13.5605C15.6875 13.5605 15.625 13.5605 15.625 13.498C15.5625 13.498 15.5625 13.4355 15.5 13.4355C15.4375 13.4355 15.4375 13.373 15.375 13.373C15.375 13.373 15.375 13.373 15.3125 13.373H15.25C15.1875 13.373 15.1875 13.373 15.125 13.3105C15.0625 13.3105 15.0625 13.3105 15 13.3105C14.9375 13.3105 14.9375 13.3105 14.875 13.3105C14.8125 13.3105 14.8125 13.3105 14.75 13.3105C14.6875 13.3105 14.6875 13.3105 14.625 13.3105C14.5625 13.3105 14.5625 13.3105 14.5 13.3105C14.4375 13.3105 14.4375 13.3105 14.375 13.3105C14.3125 13.3105 14.3125 13.3105 14.25 13.373C14.1875 13.373 14.1875 13.4355 14.125 13.4355H14.0625C10.3125 15.6855 8.5625 19.623 9.125 24.4355C9.1875 25.4355 9.4375 26.4355 9.75 27.248C8.8125 27.6855 7.9375 27.748 7.1875 27.498L7.6875 26.1855C7.6875 26.123 7.75 26.0605 7.75 25.9355C7.75 25.873 7.75 25.8105 7.75 25.6855C7.75 25.623 7.75 25.498 7.75 25.4355C7.75 25.373 7.6875 25.3105 7.6875 25.248V25.1855C7.6875 25.123 7.625 25.123 7.625 25.0605C7.625 25.0605 7.625 24.998 7.5625 24.998L7.5 24.9355C7.5 24.873 7.4375 24.873 7.4375 24.8105C7.375 24.748 7.3125 24.6855 7.25 24.6855C7.25 24.6855 7.25 24.6855 7.1875 24.6855C7.125 24.623 7.0625 24.623 7 24.5605C6.9375 24.5605 6.875 24.5605 6.875 24.498H6.8125C5.4375 24.248 4.5625 24.0605 3.75 22.373C4.8125 22.3105 6.0625 22.0605 7.375 21.248C7.8125 20.998 8.125 20.498 8 19.998C7.875 19.498 7.5625 19.123 7.0625 19.0605C7 19.0605 5.8125 18.5605 5.8125 15.748C5.8125 15.6855 5.8125 15.6855 5.8125 15.623C5.8125 15.5605 5.8125 15.5605 5.8125 15.498C5.8125 15.4355 5.8125 15.4355 5.75 15.373C5.75 15.3105 5.75 15.3105 5.6875 15.248C5.6875 15.1855 5.625 15.1855 5.625 15.123C5.625 15.123 5.625 15.0605 5.5625 15.0605C5.5625 14.998 5.5 14.998 5.5 14.9355L5.4375 14.873C5.375 14.8105 5.375 14.8105 5.3125 14.8105L5.25 14.748C5.1875 14.748 5.1875 14.6855 5.125 14.6855L5.0625 14.623C5.125 14.498 5.0625 14.498 5 14.498H4.9375C4.875 14.498 4.75 14.498 4.6875 14.498C5.375 13.748 6.375 13.1855 7.375 12.5605L7.5625 12.4355C7.875 12.248 8.0625 11.9355 8.125 11.623C8.1875 11.248 8.125 10.9355 7.875 10.623L7.8125 10.5605C7.625 10.3105 7.4375 10.123 7.3125 9.87305C8.5625 9.37305 10.25 9.24805 11 9.62305C11.375 9.81055 11.875 9.74805 12.1875 9.49805C12.5625 9.24805 12.75 8.81055 12.6875 8.37305C12.625 6.93555 13.1875 6.12305 13.875 5.12305C14.25 4.62305 14.625 4.12305 14.875 3.49805C15.75 4.18555 16.5625 5.12305 16.75 5.74805C16.875 6.24805 17.1875 6.56055 17.6875 6.68555C18.1875 6.81055 18.625 6.62305 18.9375 6.24805C19.5 5.56055 21.5625 4.56055 23.5625 3.99805C23.75 4.18555 23.875 4.43555 23.9375 4.74805C24 5.06055 24.125 5.93555 24.0625 7.62305C24.0625 7.99805 24.25 8.37305 24.5 8.62305C24.8125 8.87305 25.1875 8.93555 25.5625 8.87305L25.8125 8.81055C27 8.56055 28 8.31055 28.8125 8.74805C29.5625 9.18555 30.6875 9.68555 31.75 10.0605L31.6875 10.123C31.3125 10.373 31.125 10.8105 31.1875 11.1855C31.1875 11.623 31.4375 11.998 31.8125 12.1855C33.0625 12.873 33.8125 13.5605 34.3125 14.4355C34.0625 14.5605 33.875 14.6855 33.625 14.8105C33.25 15.0605 32.875 15.248 32.4375 15.4355C32.3125 15.498 32.125 15.5605 32.0625 15.6855C31.75 15.9355 31.5625 16.373 31.625 16.8105C31.8125 18.1855 32.5625 18.873 33.125 19.248C34.25 19.873 35.6875 19.8105 36.8125 19.5605C36.9375 22.3105 35.25 23.0605 34.9375 23.1855L33.6875 23.373C33.125 23.4355 32.6875 23.9355 32.625 24.498C32.5625 25.3105 32.8125 26.123 33.375 26.873C32.6875 27.0605 31.875 27.248 31.0625 27.3105Z" fill="#0D9DDA"/>
<path d="M28.1249 27.873C26.6249 29.998 23.9374 31.1855 20.6249 31.1855C15.3124 31.1855 12.1874 28.6855 11.7499 24.1855C11.4374 21.623 11.8124 18.248 14.8749 15.998C16.4374 16.873 18.9374 17.6855 20.2499 17.6855C20.7499 17.6855 21.1874 17.4355 21.3749 16.9355C21.5624 16.498 21.4999 15.998 21.1874 15.623C20.9374 15.3105 20.6874 14.9355 20.5624 14.5605C22.6249 15.373 24.8124 16.748 25.6874 18.123C25.9374 18.5605 26.4374 18.748 26.8749 18.6855C27.2499 18.623 27.5624 18.5605 27.8749 18.373C28.9999 20.623 29.9999 24.373 28.1249 27.873Z" fill="white"/>
<path d="M22.0625 25.1855C22 25.1855 21.875 25.1855 21.8125 25.248C21.5625 25.623 21.0625 25.873 20.5 25.873C19.9375 25.873 19.4375 25.623 19.1875 25.248C19.125 25.1855 19.0625 25.123 18.9375 25.123C17.8125 25.373 16.6875 25.9355 15.5625 26.748C15.1875 26.998 15 27.4355 15 27.873C15 28.498 15.125 28.873 15.4375 29.123C15.625 29.3105 15.875 29.373 16.1875 29.373C16.625 29.373 17.1875 29.248 17.8125 29.0605C18.5625 28.873 19.4375 28.623 20.3125 28.623C21.125 28.623 22 28.8105 22.8125 28.998C23.9375 29.248 24.9375 29.498 25.5 29.0605C25.75 28.8105 25.9375 28.498 25.9375 27.9355C25.9375 27.5605 25.8125 27.248 25.5 26.998C25.125 26.623 23.8125 25.623 22.0625 25.1855Z" fill="#032D60"/>
<path d="M16.8125 24.498C17.3993 24.498 17.875 23.8265 17.875 22.998C17.875 22.1696 17.3993 21.498 16.8125 21.498C16.2257 21.498 15.75 22.1696 15.75 22.998C15.75 23.8265 16.2257 24.498 16.8125 24.498Z" fill="#032D60"/>
<path d="M25.25 22.998C25.25 22.1855 24.8125 21.498 24.1875 21.498C23.625 21.498 23.125 22.1855 23.125 22.998C23.125 23.8105 23.5625 24.498 24.1875 24.498C24.8125 24.498 25.25 23.8105 25.25 22.998Z" fill="#032D60"/>
<path d="M15.625 21.0606C15.75 20.6231 16.4375 20.3731 16.9375 20.4981C17.375 20.6231 17.9375 20.3731 18.0625 19.9356C18.1875 19.4981 17.9375 18.9356 17.5 18.8106C16 18.3106 14.375 19.0606 13.9375 20.4981C13.8125 20.9356 14.0625 21.4981 14.5 21.6231C14.9375 21.7481 15.4375 21.4981 15.625 21.0606Z" fill="#032D60"/>
<path d="M23.0627 18.998C22.6252 19.248 22.4377 19.748 22.6877 20.1855C22.9377 20.623 23.4377 20.8105 23.8752 20.5605C24.3752 20.3105 25.0627 20.4355 25.3127 20.873C25.5627 21.3105 26.0627 21.498 26.5002 21.248C26.9377 20.998 27.1252 20.498 26.8752 20.0605C26.1877 18.748 24.4377 18.3105 23.0627 18.998Z" fill="#032D60"/>
</svg>
