<svg width="18" height="18" viewBox="0 0 18 18" fill="none" xmlns="http://www.w3.org/2000/svg">
<path fill-rule="evenodd" clip-rule="evenodd" d="M9.0001 1.57461C4.89938 1.57461 1.5751 4.8989 1.5751 8.99961C1.5751 13.1003 4.89938 16.4246 9.0001 16.4246C13.1008 16.4246 16.4251 13.1003 16.4251 8.99961C16.4251 4.8989 13.1008 1.57461 9.0001 1.57461ZM0.225098 8.99961C0.225098 4.15331 4.1538 0.224609 9.0001 0.224609C13.8464 0.224609 17.7751 4.15331 17.7751 8.99961C17.7751 13.8459 13.8464 17.7746 9.0001 17.7746C4.1538 17.7746 0.225098 13.8459 0.225098 8.99961Z" fill="#032D60"/>
<path fill-rule="evenodd" clip-rule="evenodd" d="M6.83568 3.56605C6.17972 4.9217 5.75512 6.84192 5.75512 8.99961C5.75512 11.1573 6.17972 13.0775 6.83568 14.4332C7.51435 15.8358 8.32288 16.4246 9.0001 16.4246C9.67731 16.4246 10.4846 15.8358 11.1633 14.4332C11.8192 13.0775 12.2438 11.1573 12.2438 8.99961C12.2438 6.84192 11.8192 4.9217 11.1633 3.56605C10.4846 2.16346 9.67731 1.57461 9.0001 1.57461C8.32288 1.57461 7.51435 2.16346 6.83568 3.56605ZM5.62047 2.97804C6.36032 1.44901 7.51271 0.224609 9.0001 0.224609C10.4875 0.224609 11.6386 1.44901 12.3785 2.97804C13.1411 4.55401 13.5938 6.68379 13.5938 8.99961C13.5938 11.3154 13.1411 13.4452 12.3785 15.0212C11.6386 16.5502 10.4875 17.7746 9.0001 17.7746C7.51271 17.7746 6.36032 16.5502 5.62047 15.0212C4.8579 13.4452 4.40512 11.3154 4.40512 8.99961C4.40512 6.68379 4.8579 4.55401 5.62047 2.97804Z" fill="#032D60"/>
<path fill-rule="evenodd" clip-rule="evenodd" d="M9.0001 0.224609C9.37289 0.224609 9.6751 0.526817 9.6751 0.899609V17.0996C9.6751 17.4724 9.37289 17.7746 9.0001 17.7746C8.62731 17.7746 8.3251 17.4724 8.3251 17.0996V0.899609C8.3251 0.526817 8.62731 0.224609 9.0001 0.224609Z" fill="#032D60"/>
<path fill-rule="evenodd" clip-rule="evenodd" d="M0.225098 8.99962C0.225098 8.62683 0.527305 8.32462 0.900098 8.32462H17.1001C17.4729 8.32462 17.7751 8.62683 17.7751 8.99962C17.7751 9.37241 17.4729 9.67462 17.1001 9.67462H0.900098C0.527305 9.67462 0.225098 9.37241 0.225098 8.99962Z" fill="#032D60"/>
</svg>
