<svg width="18" height="16" viewBox="0 0 18 16" fill="none" xmlns="http://www.w3.org/2000/svg">
<path fill-rule="evenodd" clip-rule="evenodd" d="M18.6732 2.92298H1.327C0.988537 2.92298 0.692383 2.62683 0.692383 2.28837V1.01914C0.692383 0.680675 0.988537 0.384521 1.327 0.384521H18.6732C19.0116 0.384521 19.3078 0.680675 19.3078 1.01914V2.28837C19.3078 2.62683 19.0116 2.92298 18.6732 2.92298ZM18.6732 9.22683H1.327C0.988537 9.22683 0.692383 8.93068 0.692383 8.59221V7.32298C0.692383 7.02683 0.988537 6.73068 1.327 6.73068H18.6732C19.0116 6.73068 19.3078 7.02683 19.3078 7.36529V8.63452C19.3078 8.93068 19.0116 9.22683 18.6732 9.22683ZM18.6732 15.6153H1.327C0.988537 15.6153 0.692383 15.3191 0.692383 14.9807V13.7114C0.692383 13.373 0.988537 13.0768 1.327 13.0768H18.6732C19.0116 13.0768 19.3078 13.373 19.3078 13.7114V14.9807C19.3078 15.3191 19.0116 15.6153 18.6732 15.6153Z" fill="#032D60"/>
</svg>
