<svg xmlns="http://www.w3.org/2000/svg" xmlns:xlink="http://www.w3.org/1999/xlink" viewBox="0,0,256,256" width="50px" height="50px" fill-rule="nonzero"><g fill="#0176d3" fill-rule="nonzero" stroke="none" stroke-width="1" stroke-linecap="butt" stroke-linejoin="miter" stroke-miterlimit="10" stroke-dasharray="" stroke-dashoffset="0" font-family="none" font-weight="none" font-size="none" text-anchor="none" style="mix-blend-mode: normal"><g transform="scale(5.12,5.12)"><path d="M33.40625,0c-0.55078,0.05078 -0.95703,0.54297 -0.90625,1.09375c0.05078,0.55078 0.54297,0.95703 1.09375,0.90625h12.96875l-20.875,20.90625c-0.29687,0.24219 -0.43359,0.62891 -0.34766,1.00391c0.08594,0.37109 0.37891,0.66406 0.75,0.75c0.375,0.08594 0.76172,-0.05078 1.00391,-0.34766l20.90625,-20.875v12.96875c-0.00391,0.35938 0.18359,0.69531 0.49609,0.87891c0.3125,0.17969 0.69531,0.17969 1.00781,0c0.3125,-0.18359 0.5,-0.51953 0.49609,-0.87891v-16.40625h-16.40625c-0.03125,0 -0.0625,0 -0.09375,0c-0.03125,0 -0.0625,0 -0.09375,0zM2,10c-0.52344,0 -1.05859,0.18359 -1.4375,0.5625c-0.37891,0.37891 -0.5625,0.91406 -0.5625,1.4375v36c0,0.52344 0.18359,1.05859 0.5625,1.4375c0.37891,0.37891 0.91406,0.5625 1.4375,0.5625h36c0.52344,0 1.05859,-0.18359 1.4375,-0.5625c0.37891,-0.37891 0.5625,-0.91406 0.5625,-1.4375v-30c0.00391,-0.35937 -0.18359,-0.69531 -0.49609,-0.87891c-0.3125,-0.17969 -0.69531,-0.17969 -1.00781,0c-0.3125,0.18359 -0.5,0.51953 -0.49609,0.87891v30h-36v-36h30c0.35938,0.00391 0.69531,-0.18359 0.87891,-0.49609c0.17969,-0.3125 0.17969,-0.69531 0,-1.00781c-0.18359,-0.3125 -0.51953,-0.5 -0.87891,-0.49609z"></path></g></g></svg>