<svg width="13" height="14" viewBox="0 0 13 14" fill="none" xmlns="http://www.w3.org/2000/svg">
<path fill-rule="evenodd" clip-rule="evenodd" d="M12.6105 0.939209H7.56968C7.33892 0.939209 7.10815 1.08344 7.10815 1.31421V1.71084C7.10815 1.94161 7.31007 2.20122 7.56968 2.20122H10.0469C10.3065 2.20122 10.5192 2.53287 10.3173 2.70595L5.35587 7.534C5.18279 7.70708 5.18279 7.96669 5.35587 8.13976L5.59376 8.33095C5.76683 8.50402 6.02645 8.50402 6.19952 8.33095L11.262 3.40554C11.4351 3.23246 11.7235 3.34785 11.7235 3.60746V6.35504C11.7235 6.58581 11.9543 6.84543 12.1851 6.84543H12.5528C12.7836 6.84543 12.9855 6.58581 12.9855 6.35504V1.34305C12.9855 1.08344 12.8413 0.939209 12.6105 0.939209ZM9.50235 7.24931L8.99033 7.79017C8.81726 7.96325 8.73072 8.16517 8.73072 8.39594V11.6844C8.73072 11.9152 8.52879 12.1171 8.29803 12.1171H2.24036C2.00959 12.1171 1.80767 11.9152 1.80767 11.6844V5.62672C1.80767 5.39595 2.00959 5.19403 2.24036 5.19403H5.55765C5.78842 5.19403 6.01919 5.10749 6.16342 4.93442L6.96755 4.34663C7.14063 4.17356 7.02525 3.85625 6.76563 3.85625H1.6995C1.06488 3.85625 0.545654 4.37548 0.545654 5.01009V12.2252C0.545654 12.8599 1.06488 13.3791 1.6995 13.3791H9.30764C9.94225 13.3791 9.99273 12.8599 9.99273 12.2252V7.45123C9.99273 7.19162 9.67542 7.07624 9.50235 7.24931Z" fill="#0176D3"/>
</svg>
