<svg width="17" height="18" viewBox="0 0 17 18" fill="none" xmlns="http://www.w3.org/2000/svg">
<path fill-rule="evenodd" clip-rule="evenodd" d="M9.59807 2.16357H14.024L6.38076 9.80684C6.19038 9.99722 6.19038 10.3059 6.38076 10.4963L6.84038 10.9559C7.03076 11.1463 7.33943 11.1463 7.52981 10.9559L15.1721 3.3136V7.7386C15.1721 8.00784 15.3904 8.2261 15.6596 8.2261H16.3096C16.5788 8.2261 16.7971 8.00784 16.7971 7.7386V1.47607C16.7971 0.958308 16.3774 0.538574 15.8596 0.538574H9.59807C9.32883 0.538574 9.11057 0.756835 9.11057 1.02607V1.67607C9.11057 1.94531 9.32883 2.16357 9.59807 2.16357ZM2.47595 4.03918C1.12976 4.03918 0.0384521 5.13048 0.0384521 6.47668V14.8517C0.0384521 16.1979 1.12976 17.2892 2.47595 17.2892H10.851C12.1971 17.2892 13.2885 16.1979 13.2885 14.8517L13.2885 8.88525C13.2885 8.59586 12.9387 8.45079 12.7339 8.65521L11.9497 9.43781C11.7664 9.62071 11.6635 9.869 11.6635 10.1279V14.8517C11.6635 15.3004 11.2997 15.6642 10.851 15.6642H2.47595C2.02722 15.6642 1.66345 15.3004 1.66345 14.8517V6.47668C1.66345 6.02794 2.02722 5.66418 2.47595 5.66418H7.29946C7.57164 5.66418 7.83142 5.55041 8.016 5.35038L8.72267 4.58458C8.91479 4.37638 8.76712 4.03918 8.48382 4.03918H2.47595Z" fill="white"/>
</svg>
