<svg width="18" height="18" viewBox="0 0 18 18" fill="none" xmlns="http://www.w3.org/2000/svg">
<path fill-rule="evenodd" clip-rule="evenodd" d="M17.1686 15.6801L12.5301 11.0763C13.4647 9.76089 13.9494 8.09935 13.707 6.33397C13.2917 3.35704 10.8686 1.0032 7.85705 0.726274C3.77243 0.31089 0.310895 3.77243 0.72628 7.89166C1.0032 10.8686 3.35705 13.3263 6.33397 13.7417C8.09936 13.984 9.76089 13.4994 11.0763 12.5647L15.6801 17.1686C15.8878 17.3763 16.1994 17.3763 16.407 17.1686L17.134 16.4417C17.3417 16.234 17.3417 15.8878 17.1686 15.6801ZM2.76857 7.23394C2.76857 4.77625 4.77626 2.76856 7.23395 2.76856C9.69165 2.76856 11.6993 4.77625 11.6993 7.23394C11.6993 9.69164 9.69165 11.6993 7.23395 11.6993C4.77626 11.6993 2.76857 9.72625 2.76857 7.23394Z" fill="#032D60"/>
</svg>
