<?xml version="1.0" encoding="UTF-8"?>
<svg id="Layer_1" data-name="Layer 1" xmlns="http://www.w3.org/2000/svg" viewBox="0 0 32 32">
  <defs>
    <style>
      .cls-1 {
        fill: none;
      }

      .cls-1, .cls-2, .cls-3 {
        stroke-width: 0px;
      }

      .cls-2 {
        fill: #59575c;
      }

      .cls-3 {
        fill: #fff;
      }
    </style>
  </defs>
  <g id="transparent_border" data-name="transparent border">
    <rect class="cls-1" width="32" height="32"/>
  </g>
  <g>
    <g id="icons">
      <path class="cls-2" d="M26,2H6c-2.21,0-4,1.79-4,4v20c0,2.21,1.79,4,4,4h20c2.21,0,4-1.79,4-4V6c0-2.21-1.79-4-4-4Z"/>
    </g>
    <g>
      <path class="cls-1" d="M17.52,20.63c-.06,1.54-1.35,2.77-2.94,2.77h0c1.59,0,2.88-1.23,2.94-2.77V6.91s0,0,0,0v13.72Z"/>
      <path class="cls-1" d="M14.58,23.4h0c-.18,0-.36-.02-.53-.05.17.03.35.05.53.05Z"/>
      <path class="cls-3" d="M14.43,14.23v-.81c-.28-.04-.57-.06-.87-.06-3.56,0-6.45,2.83-6.45,6.3,0,2.13,1.09,4.02,2.75,5.16,0,0,0,0,0,0,1.05.72,2.32,1.14,3.7,1.14,3.56,0,6.45-2.83,6.45-6.3v-6.96c1.37.96,3.06,1.53,4.87,1.53v-2.66h0v-.76c-.98,0-1.89-.28-2.65-.77,0,0,0,0,0,0-1.1-.7-1.89-1.82-2.14-3.12h0c-.05-.28-.08-.57-.08-.87h-3.5v13.72c-.06,1.54-1.36,2.77-2.94,2.77-.49,0-.96-.12-1.37-.33h0c-.94-.48-1.58-1.44-1.58-2.55,0-1.59,1.32-2.88,2.94-2.88.3,0,.59.05.87.13v-2.68"/>
    </g>
  </g>
</svg>